<svg width="65" height="24" viewBox="0 0 65 24" fill="none" xmlns="http://www.w3.org/2000/svg">
<g clip-path="url(#clip0_35_39)">
<path d="M4.47199 24C3.76799 24 3.11732 23.8293 2.51999 23.488C1.94399 23.1467 1.48532 22.688 1.14399 22.112C0.802656 21.5147 0.631989 20.864 0.631989 20.16V19.264H3.22399V20.16C3.22399 20.5013 3.34132 20.8 3.57599 21.056C3.83199 21.2907 4.13066 21.408 4.47199 21.408H19.832C20.1733 21.408 20.4613 21.2907 20.696 21.056C20.952 20.8 21.08 20.5013 21.08 20.16V15.008C21.08 14.6667 20.952 14.3787 20.696 14.144C20.4613 13.9093 20.1733 13.792 19.832 13.792H4.47199C3.76799 13.792 3.11732 13.6213 2.51999 13.28C1.94399 12.9173 1.48532 12.448 1.14399 11.872C0.802656 11.296 0.631989 10.656 0.631989 9.95199V4.79999C0.631989 4.09599 0.802656 3.45599 1.14399 2.87999C1.48532 2.28266 1.94399 1.81332 2.51999 1.47199C3.11732 1.13066 3.76799 0.959991 4.47199 0.959991H19.832C20.536 0.959991 21.176 1.13066 21.752 1.47199C22.3493 1.81332 22.8187 2.28266 23.16 2.87999C23.5013 3.45599 23.672 4.09599 23.672 4.79999V5.69599H21.08V4.79999C21.08 4.45866 20.952 4.17066 20.696 3.93599C20.4613 3.67999 20.1733 3.55199 19.832 3.55199H4.47199C4.13066 3.55199 3.83199 3.67999 3.57599 3.93599C3.34132 4.17066 3.22399 4.45866 3.22399 4.79999V9.95199C3.22399 10.2933 3.34132 10.5813 3.57599 10.816C3.83199 11.0507 4.13066 11.168 4.47199 11.168H19.832C20.536 11.168 21.176 11.3493 21.752 11.712C22.3493 12.0533 22.8187 12.512 23.16 13.088C23.5013 13.664 23.672 14.304 23.672 15.008V20.16C23.672 20.864 23.5013 21.5147 23.16 22.112C22.8187 22.688 22.3493 23.1467 21.752 23.488C21.176 23.8293 20.536 24 19.832 24H4.47199Z" fill="#232F45"/>
<path d="M4.47199 24C3.76799 24 3.11732 23.8293 2.51999 23.488C1.94399 23.1467 1.48532 22.688 1.14399 22.112C0.802656 21.5147 0.631989 20.864 0.631989 20.16V19.264H3.22399V20.16C3.22399 20.5013 3.34132 20.8 3.57599 21.056C3.83199 21.2907 4.13066 21.408 4.47199 21.408H19.832C20.1733 21.408 20.4613 21.2907 20.696 21.056C20.952 20.8 21.08 20.5013 21.08 20.16V15.008C21.08 14.6667 20.952 14.3787 20.696 14.144C20.4613 13.9093 20.1733 13.792 19.832 13.792H4.47199C3.76799 13.792 3.11732 13.6213 2.51999 13.28C1.94399 12.9173 1.48532 12.448 1.14399 11.872C0.802656 11.296 0.631989 10.656 0.631989 9.95199V4.79999C0.631989 4.09599 0.802656 3.45599 1.14399 2.87999C1.48532 2.28266 1.94399 1.81332 2.51999 1.47199C3.11732 1.13066 3.76799 0.959991 4.47199 0.959991H19.832C20.536 0.959991 21.176 1.13066 21.752 1.47199C22.3493 1.81332 22.8187 2.28266 23.16 2.87999C23.5013 3.45599 23.672 4.09599 23.672 4.79999V5.69599H21.08V4.79999C21.08 4.45866 20.952 4.17066 20.696 3.93599C20.4613 3.67999 20.1733 3.55199 19.832 3.55199H4.47199C4.13066 3.55199 3.83199 3.67999 3.57599 3.93599C3.34132 4.17066 3.22399 4.45866 3.22399 4.79999V9.95199C3.22399 10.2933 3.34132 10.5813 3.57599 10.816C3.83199 11.0507 4.13066 11.168 4.47199 11.168H19.832C20.536 11.168 21.176 11.3493 21.752 11.712C22.3493 12.0533 22.8187 12.512 23.16 13.088C23.5013 13.664 23.672 14.304 23.672 15.008V20.16C23.672 20.864 23.5013 21.5147 23.16 22.112C22.8187 22.688 22.3493 23.1467 21.752 23.488C21.176 23.8293 20.536 24 19.832 24H4.47199Z" fill="#121825" fill-opacity="0.1"/>
<path d="M41.856 24V0.959991H61.056C61.76 0.959991 62.4 1.13066 62.976 1.47199C63.5733 1.81332 64.0427 2.28266 64.384 2.87999C64.7253 3.45599 64.896 4.09599 64.896 4.79999V20.16C64.896 20.864 64.7253 21.5147 64.384 22.112C64.0427 22.688 63.5733 23.1467 62.976 23.488C62.4 23.8293 61.76 24 61.056 24H41.856ZM45.696 21.408H61.056C61.3973 21.408 61.6853 21.2907 61.92 21.056C62.176 20.8 62.304 20.5013 62.304 20.16V4.79999C62.304 4.45866 62.176 4.17066 61.92 3.93599C61.6853 3.67999 61.3973 3.55199 61.056 3.55199H45.696C45.3547 3.55199 45.056 3.67999 44.8 3.93599C44.5653 4.17066 44.448 4.45866 44.448 4.79999V20.16C44.448 20.5013 44.5653 20.8 44.8 21.056C45.056 21.2907 45.3547 21.408 45.696 21.408Z" fill="#232F45" fill-opacity="0.1"/>
<path d="M41.856 24V0.959991H61.056C61.76 0.959991 62.4 1.13066 62.976 1.47199C63.5733 1.81332 64.0427 2.28266 64.384 2.87999C64.7253 3.45599 64.896 4.09599 64.896 4.79999V20.16C64.896 20.864 64.7253 21.5147 64.384 22.112C64.0427 22.688 63.5733 23.1467 62.976 23.488C62.4 23.8293 61.76 24 61.056 24H41.856ZM45.696 21.408H61.056C61.3973 21.408 61.6853 21.2907 61.92 21.056C62.176 20.8 62.304 20.5013 62.304 20.16V4.79999C62.304 4.45866 62.176 4.17066 61.92 3.93599C61.6853 3.67999 61.3973 3.55199 61.056 3.55199H45.696C45.3547 3.55199 45.056 3.67999 44.8 3.93599C44.5653 4.17066 44.448 4.45866 44.448 4.79999V20.16C44.448 20.5013 44.5653 20.8 44.8 21.056C45.056 21.2907 45.3547 21.408 45.696 21.408Z" fill="#232F45"/>
<path d="M28.861 22L25.455 12.64H26.573L29.316 20.154L32.046 12.64H33.32L36.063 20.154L38.78 12.64H39.924L36.518 22H35.595L32.683 14.005L29.771 22H28.861Z" fill="#121825" fill-opacity="0.1"/>
<path d="M28.861 22L25.455 12.64H26.573L29.316 20.154L32.046 12.64H33.32L36.063 20.154L38.78 12.64H39.924L36.518 22H35.595L32.683 14.005L29.771 22H28.861Z" fill="#232F45"/>
<path d="M28.861 2L25.455 11.36H26.573L29.316 3.846L32.046 11.36H33.32L36.063 3.846L38.78 11.36H39.924L36.518 2H35.595L32.683 9.995L29.771 2H28.861Z" fill="#232F45"/>
<path d="M28.861 2L25.455 11.36H26.573L29.316 3.846L32.046 11.36H33.32L36.063 3.846L38.78 11.36H39.924L36.518 2H35.595L32.683 9.995L29.771 2H28.861Z" fill="#121825" fill-opacity="0.1"/>
</g>
<defs>
<clipPath id="clip0_35_39">
<rect width="65" height="24" fill="white"/>
</clipPath>
</defs>
</svg>
